<?xml version="1.0" encoding="UTF-8" standalone="no"?>
<!-- Created with Inkscape (http://www.inkscape.org/) -->

<svg
   xmlns:dc="http://purl.org/dc/elements/1.1/"
   xmlns:cc="http://creativecommons.org/ns#"
   xmlns:rdf="http://www.w3.org/1999/02/22-rdf-syntax-ns#"
   xmlns:svg="http://www.w3.org/2000/svg"
   xmlns="http://www.w3.org/2000/svg"
   xmlns:sodipodi="http://sodipodi.sourceforge.net/DTD/sodipodi-0.dtd"
   xmlns:inkscape="http://www.inkscape.org/namespaces/inkscape"
   width="744.09448819"
   height="1052.3622047"
   id="svg2"
   version="1.1"
   inkscape:version="0.48.2 r9819"
   sodipodi:docname="value-identity-state-and-time.svg">
  <defs
     id="defs4">
    <marker
       inkscape:stockid="Arrow2Lend"
       orient="auto"
       refY="0"
       refX="0"
       id="Arrow2Lend"
       style="overflow:visible">
      <path
         inkscape:connector-curvature="0"
         id="path3818"
         style="font-size:12px;fill-rule:evenodd;stroke-width:0.625;stroke-linejoin:round"
         d="M 8.7185878,4.0337352 -2.2072895,0.01601326 8.7185884,-4.0017078 c -1.7454984,2.3720609 -1.7354408,5.6174519 -6e-7,8.035443 z"
         transform="matrix(-1.1,0,0,-1.1,-1.1,0)" />
    </marker>
    <marker
       inkscape:stockid="Arrow2Lend"
       orient="auto"
       refY="0"
       refX="0"
       id="marker3210"
       style="overflow:visible">
      <path
         inkscape:connector-curvature="0"
         id="path3212"
         style="font-size:12px;fill-rule:evenodd;stroke-width:0.625;stroke-linejoin:round"
         d="M 8.7185878,4.0337352 -2.2072895,0.01601326 8.7185884,-4.0017078 c -1.7454984,2.3720609 -1.7354408,5.6174519 -6e-7,8.035443 z"
         transform="matrix(-1.1,0,0,-1.1,-1.1,0)" />
    </marker>
    <marker
       inkscape:stockid="Arrow2Lend"
       orient="auto"
       refY="0"
       refX="0"
       id="Arrow2Lend-3"
       style="overflow:visible">
      <path
         inkscape:connector-curvature="0"
         id="path3818-8"
         style="font-size:12px;fill-rule:evenodd;stroke-width:0.625;stroke-linejoin:round"
         d="M 8.7185878,4.0337352 -2.2072895,0.01601326 8.7185884,-4.0017078 c -1.7454984,2.3720609 -1.7354408,5.6174519 -6e-7,8.035443 z"
         transform="matrix(-1.1,0,0,-1.1,-1.1,0)" />
    </marker>
    <marker
       inkscape:stockid="Arrow2Lend"
       orient="auto"
       refY="0"
       refX="0"
       id="Arrow2Lend-0"
       style="overflow:visible">
      <path
         inkscape:connector-curvature="0"
         id="path3818-82"
         style="font-size:12px;fill-rule:evenodd;stroke-width:0.625;stroke-linejoin:round"
         d="M 8.7185878,4.0337352 -2.2072895,0.01601326 8.7185884,-4.0017078 c -1.7454984,2.3720609 -1.7354408,5.6174519 -6e-7,8.035443 z"
         transform="matrix(-1.1,0,0,-1.1,-1.1,0)" />
    </marker>
    <marker
       inkscape:stockid="Arrow2Lend"
       orient="auto"
       refY="0"
       refX="0"
       id="Arrow2Lend-7"
       style="overflow:visible">
      <path
         inkscape:connector-curvature="0"
         id="path3818-4"
         style="font-size:12px;fill-rule:evenodd;stroke-width:0.625;stroke-linejoin:round"
         d="M 8.7185878,4.0337352 -2.2072895,0.01601326 8.7185884,-4.0017078 c -1.7454984,2.3720609 -1.7354408,5.6174519 -6e-7,8.035443 z"
         transform="matrix(-1.1,0,0,-1.1,-1.1,0)" />
    </marker>
    <marker
       inkscape:stockid="Arrow2Lend"
       orient="auto"
       refY="0"
       refX="0"
       id="Arrow2Lend-77"
       style="overflow:visible">
      <path
         inkscape:connector-curvature="0"
         id="path3818-83"
         style="font-size:12px;fill-rule:evenodd;stroke-width:0.625;stroke-linejoin:round"
         d="M 8.7185878,4.0337352 -2.2072895,0.01601326 8.7185884,-4.0017078 c -1.7454984,2.3720609 -1.7354408,5.6174519 -6e-7,8.035443 z"
         transform="matrix(-1.1,0,0,-1.1,-1.1,0)" />
    </marker>
    <marker
       inkscape:stockid="Arrow2Lend"
       orient="auto"
       refY="0"
       refX="0"
       id="Arrow2Lend-09"
       style="overflow:visible">
      <path
         inkscape:connector-curvature="0"
         id="path3818-9"
         style="font-size:12px;fill-rule:evenodd;stroke-width:0.625;stroke-linejoin:round"
         d="M 8.7185878,4.0337352 -2.2072895,0.01601326 8.7185884,-4.0017078 c -1.7454984,2.3720609 -1.7354408,5.6174519 -6e-7,8.035443 z"
         transform="matrix(-1.1,0,0,-1.1,-1.1,0)" />
    </marker>
  </defs>
  <sodipodi:namedview
     id="base"
     pagecolor="#ffffff"
     bordercolor="#666666"
     borderopacity="1.0"
     inkscape:pageopacity="0.0"
     inkscape:pageshadow="2"
     inkscape:zoom="0.70710678"
     inkscape:cx="42.655425"
     inkscape:cy="846.94459"
     inkscape:document-units="px"
     inkscape:current-layer="layer2"
     showgrid="false"
     inkscape:window-width="1918"
     inkscape:window-height="1054"
     inkscape:window-x="0"
     inkscape:window-y="24"
     inkscape:window-maximized="0" />
  <metadata
     id="metadata7">
    <rdf:RDF>
      <cc:Work
         rdf:about="">
        <dc:format>image/svg+xml</dc:format>
        <dc:type
           rdf:resource="http://purl.org/dc/dcmitype/StillImage" />
        <dc:title></dc:title>
      </cc:Work>
    </rdf:RDF>
  </metadata>
  <g
     inkscape:label="value and identity"
     inkscape:groupmode="layer"
     id="layer1">
    <g
       id="g4189"
       transform="matrix(1.4197431,0,0,1.7023102,2.5956143,-310.04178)">
      <rect
         ry="7.9977446"
         y="423.69611"
         x="165.84575"
         height="44.427612"
         width="107.60447"
         id="rect2985"
         style="opacity:0.13168724;fill:#1a1a1a;fill-opacity:1;stroke:#000000;stroke-width:0.54867643;stroke-linejoin:round;stroke-miterlimit:4;stroke-opacity:1;stroke-dasharray:none" />
      <text
         transform="scale(1.0012417,0.99875983)"
         sodipodi:linespacing="125%"
         id="text2987"
         y="452.76169"
         x="176.1279"
         style="font-size:27.93371582px;font-style:normal;font-weight:normal;line-height:125%;letter-spacing:0px;word-spacing:0px;fill:#000000;fill-opacity:1;stroke:none;font-family:Sans"
         xml:space="preserve"><tspan
           style="font-size:19.55360031px"
           y="452.76169"
           x="176.1279"
           id="tspan2989"
           sodipodi:role="line">Identity</tspan><tspan
           id="tspan6879"
           style="font-size:19.55360031px;fill:#3465a4"
           y="477.20367"
           x="176.1279"
           sodipodi:role="line" /><tspan
           id="tspan6869"
           style="font-size:19.55360031px;fill:#ff0000"
           y="501.64569"
           x="176.1279"
           sodipodi:role="line" /><tspan
           id="tspan6867"
           style="font-size:19.55360031px;fill:#ff0000"
           y="526.08771"
           x="176.1279"
           sodipodi:role="line" /><tspan
           id="tspan6865"
           style="font-size:19.55360031px;fill:#ff0000"
           y="550.52966"
           x="176.1279"
           sodipodi:role="line" /><tspan
           id="tspan6863"
           style="font-size:19.55360031px;fill:#ff0000"
           y="574.97168"
           x="176.1279"
           sodipodi:role="line" /></text>
    </g>
    <g
       id="g4451"
       transform="matrix(1.8321736,0,0,1.7023102,-194.71073,-224.19671)">
      <path
         transform="matrix(0.29770325,0,0,0.29118788,135.29788,137.08015)"
         sodipodi:open="true"
         sodipodi:end="5.9969576"
         sodipodi:start="0"
         d="m 167.14286,193.07646 c 0,12.22916 -10.23349,22.14286 -22.85714,22.14286 -12.62365,0 -22.85714,-9.9137 -22.85714,-22.14286 0,-12.22916 10.23349,-22.14285 22.85714,-22.14285 10.13813,0 19.06486,6.4694 21.92722,15.89114"
         sodipodi:ry="22.142857"
         sodipodi:rx="22.857143"
         sodipodi:cy="193.07646"
         sodipodi:cx="144.28572"
         id="path4088"
         style="opacity:0.35200004;fill:#1a1a1a;fill-opacity:1;fill-rule:nonzero;stroke:#71001e;stroke-width:1.39999998;stroke-linejoin:round;stroke-miterlimit:4;stroke-opacity:0.9372549;stroke-dasharray:none"
         sodipodi:type="arc" />
      <path
         sodipodi:nodetypes="cc"
         inkscape:connector-curvature="0"
         id="path3005-5"
         d="m 174.51521,199.27657 c -4.9135,2.47214 -5.30264,2.67239 -9.07014,7.83471"
         style="fill:none;stroke:#71001e;stroke-width:0.27420434;stroke-linecap:butt;stroke-linejoin:miter;stroke-miterlimit:4;stroke-opacity:0.9372549;stroke-dasharray:none;marker-end:url(#Arrow2Lend)" />
      <path
         sodipodi:open="true"
         sodipodi:end="5.9969576"
         sodipodi:start="0"
         d="m 167.14286,193.07646 c 0,12.22916 -10.23349,22.14286 -22.85714,22.14286 -12.62365,0 -22.85714,-9.9137 -22.85714,-22.14286 0,-12.22916 10.23349,-22.14285 22.85714,-22.14285 10.13813,0 19.06486,6.4694 21.92722,15.89114"
         sodipodi:ry="22.142857"
         sodipodi:rx="22.857143"
         sodipodi:cy="193.07646"
         sodipodi:cx="144.28572"
         id="path4088-1"
         style="opacity:0.35;fill:#1a1a1a;fill-opacity:1;fill-rule:nonzero;stroke:#71001e;stroke-width:1.39999998;stroke-linejoin:round;stroke-miterlimit:4;stroke-opacity:0.9372549;stroke-dasharray:none"
         sodipodi:type="arc"
         transform="matrix(0.29770325,0,0,0.29118788,119.56214,156.92252)" />
      <rect
         ry="10.586053"
         y="175.45932"
         x="150.85345"
         height="58.805706"
         width="51.235065"
         id="rect2985-3"
         style="opacity:0.13168724;fill:#1a1a1a;fill-opacity:1;stroke:#000000;stroke-width:0.43558016;stroke-linejoin:round;stroke-miterlimit:4;stroke-opacity:1;stroke-dasharray:none" />
    </g>
    <g
       id="g4439"
       transform="matrix(1.8321736,0,0,1.7023102,-93.286852,-170.08755)">
      <g
         id="g4436">
        <rect
           style="opacity:0.13168724;fill:#1a1a1a;fill-opacity:1;stroke:#000000;stroke-width:0.43558016;stroke-linejoin:round;stroke-miterlimit:4;stroke-opacity:1;stroke-dasharray:none"
           id="rect2985-3-4"
           width="51.235065"
           height="58.805706"
           x="333.66818"
           y="169.38791"
           ry="10.586053" />
      </g>
      <g
         transform="translate(-1.7857143,-2.8571429)"
         id="g4427">
        <path
           sodipodi:type="arc"
           style="opacity:0.35;fill:#1a1a1a;fill-opacity:1;fill-rule:nonzero;stroke:#71001e;stroke-width:1.39999998;stroke-linejoin:round;stroke-miterlimit:4;stroke-opacity:0.9372549;stroke-dasharray:none"
           id="path4088-4"
           sodipodi:cx="144.28572"
           sodipodi:cy="193.07646"
           sodipodi:rx="22.857143"
           sodipodi:ry="22.142857"
           d="m 167.14286,193.07646 c 0,12.22916 -10.23349,22.14286 -22.85714,22.14286 -12.62365,0 -22.85714,-9.9137 -22.85714,-22.14286 0,-12.22916 10.23349,-22.14285 22.85714,-22.14285 10.13813,0 19.06486,6.4694 21.92722,15.89114"
           sodipodi:start="0"
           sodipodi:end="5.9969576"
           sodipodi:open="true"
           transform="matrix(0.29770325,0,0,0.29118788,315.6126,142.4373)" />
        <path
           style="fill:none;stroke:#71001e;stroke-width:0.27420434;stroke-linecap:butt;stroke-linejoin:miter;stroke-miterlimit:4;stroke-opacity:0.9372549;stroke-dasharray:none;marker-end:url(#Arrow2Lend)"
           d="m 354.82993,204.63372 c -4.9135,2.47214 -5.30264,2.67239 -9.07014,7.83471"
           id="path3005-5-3"
           inkscape:connector-curvature="0"
           sodipodi:nodetypes="cc" />
        <path
           transform="matrix(0.29770325,0,0,0.29118788,299.87686,162.27967)"
           sodipodi:type="arc"
           style="opacity:0.35;fill:#1a1a1a;fill-opacity:1;fill-rule:nonzero;stroke:#71001e;stroke-width:1.39999998;stroke-linejoin:round;stroke-miterlimit:4;stroke-opacity:0.9372549;stroke-dasharray:none"
           id="path4088-1-5"
           sodipodi:cx="144.28572"
           sodipodi:cy="193.07646"
           sodipodi:rx="22.857143"
           sodipodi:ry="22.142857"
           d="m 167.14286,193.07646 c 0,12.22916 -10.23349,22.14286 -22.85714,22.14286 -12.62365,0 -22.85714,-9.9137 -22.85714,-22.14286 0,-12.22916 10.23349,-22.14285 22.85714,-22.14285 10.13813,0 19.06486,6.4694 21.92722,15.89114"
           sodipodi:start="0"
           sodipodi:end="5.9969576"
           sodipodi:open="true" />
        <path
           sodipodi:type="arc"
           style="opacity:0.35;fill:#1a1a1a;fill-opacity:1;fill-rule:nonzero;stroke:#71001e;stroke-width:1.39999998;stroke-linejoin:round;stroke-miterlimit:4;stroke-opacity:0.9372549;stroke-dasharray:none"
           id="path4088-4-5"
           sodipodi:cx="144.28572"
           sodipodi:cy="193.07646"
           sodipodi:rx="22.857143"
           sodipodi:ry="22.142857"
           d="m 167.14286,193.07646 c 0,12.22916 -10.23349,22.14286 -22.85714,22.14286 -12.62365,0 -22.85714,-9.9137 -22.85714,-22.14286 0,-12.22916 10.23349,-22.14285 22.85714,-22.14285 10.13813,0 19.06486,6.4694 21.92722,15.89114"
           sodipodi:start="0"
           sodipodi:end="5.9969576"
           sodipodi:open="true"
           transform="matrix(0.29770325,0,0,0.29118788,333.62067,123.84284)" />
        <path
           style="fill:none;stroke:#71001e;stroke-width:0.27420434;stroke-linecap:butt;stroke-linejoin:miter;stroke-miterlimit:4;stroke-opacity:0.9372549;stroke-dasharray:none;marker-end:url(#Arrow2Lend)"
           d="m 372.838,186.03926 c -4.9135,2.47214 -5.30264,2.67239 -9.07014,7.83471"
           id="path3005-5-3-0"
           inkscape:connector-curvature="0"
           sodipodi:nodetypes="cc" />
        <path
           sodipodi:type="arc"
           style="opacity:0.35;fill:#1a1a1a;fill-opacity:1;fill-rule:nonzero;stroke:#71001e;stroke-width:1.39999998;stroke-linejoin:round;stroke-miterlimit:4;stroke-opacity:0.9372549;stroke-dasharray:none"
           id="path4088-4-9"
           sodipodi:cx="144.28572"
           sodipodi:cy="193.07646"
           sodipodi:rx="22.857143"
           sodipodi:ry="22.142857"
           d="m 167.14286,193.07646 c 0,12.22916 -10.23349,22.14286 -22.85714,22.14286 -12.62365,0 -22.85714,-9.9137 -22.85714,-22.14286 0,-12.22916 10.23349,-22.14285 22.85714,-22.14285 10.13813,0 19.06486,6.4694 21.92722,15.89114"
           sodipodi:start="0"
           sodipodi:end="5.9969576"
           sodipodi:open="true"
           transform="matrix(0.29770325,0,0,0.29118788,328.69211,164.91428)" />
        <path
           style="fill:none;stroke:#71001e;stroke-width:0.27420434;stroke-linecap:butt;stroke-linejoin:miter;stroke-miterlimit:4;stroke-opacity:0.9372549;stroke-dasharray:none;marker-end:url(#Arrow2Lend)"
           d="m 362.98086,204.96785 c 4.01507,2.82928 3.26879,2.67239 5.21558,10.69185"
           id="path3005-5-3-4"
           inkscape:connector-curvature="0"
           sodipodi:nodetypes="cc" />
      </g>
    </g>
  </g>
  <g
     inkscape:groupmode="layer"
     id="layer2"
     inkscape:label="state">
    <path
       sodipodi:type="arc"
       style="opacity:0.13168724;fill:#1a1a1a;fill-opacity:1;fill-rule:nonzero;stroke:#71001e;stroke-width:1.39999998;stroke-linejoin:round;stroke-miterlimit:4;stroke-opacity:0.9372549;stroke-dasharray:none"
       id="path4187-0"
       sodipodi:cx="188.57143"
       sodipodi:cy="308.79074"
       sodipodi:rx="160"
       sodipodi:ry="190.71428"
       d="m 348.57143,308.79074 a 160,190.71428 0 1 1 -6.50948,-53.8454"
       sodipodi:start="0"
       sodipodi:end="5.9969576"
       sodipodi:open="true"
       transform="matrix(0.08176784,0.84988043,-1.1150917,0.87234619,759.10286,-113.58344)" />
    <path
       sodipodi:type="arc"
       style="opacity:0.13168724;fill:#1a1a1a;fill-opacity:1;fill-rule:nonzero;stroke:#71001e;stroke-width:1.39999998;stroke-linejoin:round;stroke-miterlimit:4;stroke-opacity:0.9372549;stroke-dasharray:none"
       id="path4187-0-5"
       sodipodi:cx="188.57143"
       sodipodi:cy="308.79074"
       sodipodi:rx="160"
       sodipodi:ry="190.71428"
       d="m 348.57143,308.79074 a 160,190.71428 0 1 1 -6.50948,-53.8454"
       sodipodi:start="0"
       sodipodi:end="5.9969576"
       sodipodi:open="true"
       transform="matrix(0.88329687,0.23353271,0.47710674,1.2798013,-86.546455,-157.22414)" />
    <path
       style="fill:none;stroke:#000000;stroke-width:1.76604867px;stroke-linecap:butt;stroke-linejoin:miter;stroke-opacity:1;marker-end:url(#Arrow2Lend-09)"
       d="M 216.87396,63.137535 C 302.31751,52.466955 386.96084,34.361379 482.53912,117.85464"
       id="path4457"
       inkscape:connector-curvature="0"
       sodipodi:nodetypes="cc" />
    <text
       xml:space="preserve"
       style="font-size:31.78887749px;font-style:normal;font-weight:normal;line-height:125%;letter-spacing:0px;word-spacing:0px;fill:#000000;fill-opacity:1;stroke:none;font-family:Sans"
       x="309.96384"
       y="35.226421"
       id="text4653"
       sodipodi:linespacing="125%"
       transform="scale(1.0374423,0.96390903)"><tspan
         sodipodi:role="line"
         id="tspan4655"
         x="309.96384"
         y="35.226421">F(v1)</tspan></text>
    <text
       xml:space="preserve"
       style="font-size:17.66048622px;font-style:normal;font-weight:normal;line-height:125%;letter-spacing:0px;word-spacing:0px;fill:#000000;fill-opacity:1;stroke:none;font-family:Sans"
       x="86.0541"
       y="97.542717"
       id="text4657"
       sodipodi:linespacing="125%"
       transform="scale(1.0374423,0.96390903)"><tspan
         sodipodi:role="line"
         id="tspan4659"
         x="86.0541"
         y="97.542717">v1</tspan></text>
    <text
       xml:space="preserve"
       style="font-size:17.66048622px;font-style:normal;font-weight:normal;line-height:125%;letter-spacing:0px;word-spacing:0px;fill:#000000;fill-opacity:1;stroke:none;font-family:Sans"
       x="505.79507"
       y="141.95003"
       id="text4657-3"
       sodipodi:linespacing="125%"
       transform="scale(1.0374423,0.96390903)"><tspan
         sodipodi:role="line"
         id="tspan4659-2"
         x="505.79507"
         y="141.95003">v2</tspan></text>
  </g>
</svg>
